<svg width="109" height="35" viewBox="0 0 109 35" fill="none" xmlns="http://www.w3.org/2000/svg">
<path d="M36.4271 25.8261V1.40137L28.5588 1.40137L28.5588 25.8261H36.4271Z" fill="white"/>
<path d="M47.2141 25.8266V10.8469C48.3988 8.80541 50.0232 7.78528 52.0873 7.78528C52.6793 7.78528 53.1705 7.8208 53.5594 7.89122C53.9484 7.96164 54.5715 8.11707 54.859 8.11707C55.1972 8.11707 55.5982 8.19447 55.7765 7.98956C55.9548 7.78464 55.9745 6.45302 56.793 4.93361C57.4066 3.79484 58.4308 2.88193 58.4308 2.65418C58.4308 1.89415 56.793 1.51478 56.793 1.51478C56.793 1.51478 55.3488 1.13477 53.9275 1.13477C52.5061 1.13477 51.1818 1.33207 49.98 2.13333C48.7789 2.93395 47.6957 4.02513 46.7312 5.40751L46.2997 3.123C46.2318 2.80897 46.1519 2.54189 46.0586 2.32238C45.9653 2.10224 45.8302 1.92587 45.6525 1.79265C45.4748 1.65942 45.2546 1.56109 44.9926 1.49828C44.7305 1.43548 44.4044 1.40376 44.0154 1.40376L39.3452 1.40376L39.3452 25.8266H47.2135H47.2141Z" fill="white"/>
<path d="M68.5856 0.985352C69.7011 0.985352 70.7538 1.08749 71.7424 1.29177C72.7317 1.49605 73.6486 1.78661 74.4938 2.16345L82.4305 2.16345V4.82606L82.4293 4.90156C82.4147 5.27459 82.2928 5.57086 82.0631 5.79227C81.8182 6.02764 81.3994 6.20844 80.808 6.33405L78.8809 6.73437L78.9266 6.87584C79.1328 7.53816 79.2356 8.22142 79.2356 8.92562C79.2356 10.1507 78.9609 11.2501 78.4114 12.2239C77.8619 13.1977 77.11 14.0263 76.1543 14.7095C75.1994 15.3928 74.0705 15.9187 72.7691 16.2879C71.4677 16.6572 70.073 16.8418 68.585 16.8418C67.7569 16.8418 66.979 16.7948 66.2518 16.7003C65.6769 17.0143 65.3894 17.3759 65.3894 17.7839C65.3894 18.1918 65.6217 18.4868 66.0868 18.6676C66.5519 18.8484 67.1642 18.974 67.925 19.0444C68.6859 19.1149 69.5564 19.1624 70.5368 19.1859C71.5172 19.2094 72.5146 19.2646 73.5293 19.3509C74.5439 19.4371 75.5407 19.5824 76.5217 19.7867C77.5021 19.991 78.3727 20.3209 79.1335 20.7764C79.8943 21.2319 80.5072 21.8403 80.9717 22.6022C81.4368 23.3641 81.6691 24.3341 81.6691 25.5122C81.6691 26.6117 81.3816 27.6876 80.8068 28.7401C80.2319 29.7926 79.3867 30.7271 78.2712 31.5436C77.1556 32.3601 75.7863 33.016 74.1632 33.5109C72.54 34.0057 70.6808 34.2531 68.5843 34.2531C66.4878 34.2531 64.7429 34.0723 63.2466 33.7113C61.7504 33.3504 60.508 32.8752 59.5194 32.2858C58.5301 31.6971 57.7991 31.0176 57.3258 30.2481C56.8524 29.4786 56.6157 28.6773 56.6157 27.845C56.6157 26.7614 56.9704 25.8459 57.6805 25.0999C58.3905 24.3538 59.3626 23.7689 60.5968 23.3445C60.0054 22.9835 59.532 22.5197 59.1767 21.9545C58.822 21.3892 58.6443 20.6742 58.6443 19.8102C58.6443 19.4492 58.7122 19.0679 58.8474 18.6676C58.9825 18.2673 59.1938 17.8784 59.4813 17.5016C59.7687 17.1247 60.1323 16.7631 60.5714 16.418C61.0112 16.0722 61.5353 15.7664 62.1438 15.4994C60.7745 14.8237 59.697 13.9286 58.9108 12.8133C58.1247 11.698 57.7319 10.4025 57.7319 8.92562C57.7319 7.70057 58.0111 6.59733 58.5688 5.61527C59.1266 4.63384 59.8918 3.80086 60.8639 3.1176C61.836 2.43434 62.9814 1.90842 64.2999 1.53919C65.6185 1.16996 67.0469 0.985352 68.5856 0.985352V0.985352ZM65.0963 24.515C64.6058 24.829 64.2048 25.1785 63.8919 25.5636C63.5791 25.9487 63.423 26.3846 63.423 26.8711C63.423 27.2169 63.5036 27.5309 63.6641 27.8139C63.8247 28.0968 64.1077 28.3398 64.5138 28.5441C64.9193 28.7484 65.465 28.9095 66.1496 29.0269C66.8343 29.1449 67.7004 29.2039 68.7487 29.2039C69.8813 29.2039 70.8109 29.1411 71.5381 29.0154C72.2653 28.8898 72.844 28.7173 73.2748 28.4971C73.7057 28.277 74.0058 28.0144 74.1752 27.7079C74.344 27.4015 74.429 27.0678 74.429 26.7068C74.429 26.3141 74.2983 26.0001 74.0363 25.7641C73.7742 25.5287 73.4195 25.3403 72.9715 25.1988C72.5235 25.0574 71.9994 24.9552 71.3991 24.8924C70.7989 24.8296 70.1523 24.7827 69.4594 24.7509C68.7664 24.7192 68.0475 24.692 67.3038 24.6685C66.5602 24.645 65.8247 24.5936 65.0976 24.5156L65.0963 24.515ZM68.5958 5.87855C67.2943 5.87855 66.3514 6.1615 65.7683 6.72675C65.1851 7.29201 64.8932 8.0698 64.8932 9.05948C64.8932 9.53084 64.9649 9.96287 65.109 10.3556C65.2524 10.7483 65.4764 11.0896 65.781 11.3808C66.0855 11.6713 66.4701 11.8991 66.9345 12.064C67.3997 12.229 67.953 12.3115 68.5958 12.3115C69.8972 12.3115 70.8401 12.0088 71.4232 11.4043C72.0064 10.7997 72.2983 10.0181 72.2983 9.06011C72.2983 8.10215 72.0064 7.29328 71.4232 6.72739C70.8401 6.16213 69.8978 5.87918 68.5958 5.87918V5.87855Z" fill="white"/>
<path d="M94.9365 1.00122C96.9315 1.00122 98.7488 1.29178 100.388 1.8729C102.028 2.45402 103.436 3.28636 104.611 4.37057C105.786 5.45414 106.698 6.7699 107.349 8.31723C108 9.86455 108.326 11.6041 108.326 13.5359C108.326 15.4677 108 17.2389 107.349 18.8015C106.698 20.364 105.786 21.6918 104.611 22.783C103.436 23.8748 102.028 24.7148 100.388 25.3042C98.7488 25.8929 96.9315 26.1879 94.9365 26.1879C92.9416 26.1879 91.0951 25.8935 89.4465 25.3042C87.798 24.7154 86.3786 23.8748 85.1863 22.783C83.9946 21.6912 83.0733 20.364 82.4222 18.8015C81.7712 17.2389 81.4457 15.4835 81.4457 13.5359C81.4457 11.5882 81.7712 9.86455 82.4222 8.31723C83.0733 6.7699 83.9946 5.45477 85.1863 4.37057C86.3779 3.287 87.798 2.45402 89.4465 1.8729C91.0951 1.29178 92.9251 1.00122 94.9365 1.00122ZM94.9365 6.42034C93.0767 6.42034 91.7163 7.00907 90.8539 8.18717C89.9916 9.36527 89.5608 11.1638 89.5608 13.5828C89.5608 16.0018 89.9916 17.8042 90.8539 18.9899C91.7163 20.1756 93.0767 20.7688 94.9365 20.7688C96.7964 20.7688 98.0769 20.1756 98.9303 18.9899C99.7838 17.8042 100.211 16.0018 100.211 13.5828C100.211 11.1638 99.7838 9.36527 98.9303 8.18717C98.0769 7.00907 96.7456 6.42034 94.9365 6.42034Z" fill="white"/>
<path d="M8.38093 25.9361L8.38093 15.0419H9.89811C10.4038 15.0419 10.7833 15.1009 11.0358 15.2182C11.289 15.3356 11.5333 15.59 11.7694 15.9821L16.7257 24.6056C16.9954 25.0598 17.345 25.377 17.7752 25.5572C18.2054 25.7374 18.715 25.8274 19.3051 25.8274H26.4468L19.0253 14.115C18.4662 13.2332 17.8051 12.5252 17.043 11.9897C17.4833 11.7379 17.8945 11.4543 18.2759 11.1396C18.6572 10.8249 19.0088 10.4627 19.3305 10.0535L26.1422 1.33862L18.9479 1.33862C18.3381 1.33862 17.8342 1.43315 17.4364 1.62157C17.0385 1.81062 16.6953 2.10943 16.4078 2.51862L11.4292 9.41021C11.1919 9.74074 10.9426 9.96849 10.6799 10.0947C10.4172 10.2203 10.0409 10.2838 9.54975 10.2838H8.38093L8.38093 1.24658L0.5 1.24658L0.5 25.9361H8.38093Z" fill="white"/>
</svg>
