<svg width="75" height="15" viewBox="0 0 75 15" fill="none" xmlns="http://www.w3.org/2000/svg">
<path d="M3.75642 15C4.10942 15 4.43744 14.9654 4.74048 14.8963C5.04353 14.8272 5.32659 14.7284 5.58967 14.6001C5.85275 14.4717 6.09752 14.3186 6.32397 14.1409C6.55042 13.9631 6.76688 13.7656 6.97335 13.5484L7.21312 14.3285C7.26641 14.4997 7.35799 14.628 7.48786 14.7136C7.61774 14.7992 7.77925 14.842 7.9724 14.842H9.89057V0.0592495H6.79352V5.24358C6.49381 4.99342 6.15913 4.79098 5.78948 4.63627C5.41983 4.48157 4.9686 4.40421 4.43577 4.40421C3.7764 4.40421 3.17364 4.53917 2.6275 4.80909C2.08135 5.079 1.61346 5.4526 1.22383 5.92989C0.834205 6.40718 0.532825 6.97334 0.319695 7.62837C0.106565 8.28341 0 8.99276 0 9.75642C0 10.5859 0.0949095 11.3249 0.284729 11.9733C0.474548 12.6218 0.735965 13.1698 1.06898 13.6175C1.402 14.0652 1.79829 14.4075 2.25785 14.6445C2.71741 14.8815 3.21693 15 3.75642 15ZM4.83539 12.6498C4.58896 12.6498 4.36584 12.6004 4.16603 12.5016C3.96622 12.4029 3.79472 12.24 3.65152 12.0128C3.50832 11.7857 3.39676 11.4878 3.31684 11.1192C3.23691 10.7505 3.19695 10.2962 3.19695 9.75642C3.19695 9.19684 3.2469 8.71955 3.34681 8.32456C3.44671 7.92956 3.58492 7.60862 3.76141 7.36175C3.93791 7.11488 4.14605 6.93548 4.38582 6.82357C4.62559 6.71165 4.88867 6.65569 5.17507 6.65569C5.47478 6.65569 5.75951 6.70672 6.02925 6.80876C6.299 6.9108 6.55375 7.09019 6.79352 7.34694V11.6919C6.66032 11.8499 6.52545 11.9882 6.38891 12.1067C6.25237 12.2251 6.10751 12.3239 5.95432 12.4029C5.80114 12.4819 5.63296 12.5428 5.44981 12.5856C5.26665 12.6284 5.06184 12.6498 4.83539 12.6498ZM16.0891 15C16.875 15 17.591 14.8766 18.2371 14.6297C18.8831 14.3828 19.4376 14.0306 19.9005 13.5731C20.3634 13.1155 20.723 12.5592 20.9795 11.9042C21.2359 11.2492 21.3641 10.5135 21.3641 9.69717C21.3641 8.88743 21.2359 8.15833 20.9795 7.50987C20.723 6.86142 20.3634 6.31007 19.9005 5.85583C19.4376 5.40158 18.8831 5.05267 18.2371 4.80909C17.591 4.5655 16.875 4.44371 16.0891 4.44371C15.2965 4.44371 14.5756 4.5655 13.9262 4.80909C13.2768 5.05267 12.7173 5.40158 12.2478 5.85583C11.7782 6.31007 11.4152 6.86142 11.1588 7.50987C10.9024 8.15833 10.7742 8.88743 10.7742 9.69717C10.7742 10.5135 10.9024 11.2492 11.1588 11.9042C11.4152 12.5592 11.7782 13.1155 12.2478 13.5731C12.7173 14.0306 13.2768 14.3828 13.9262 14.6297C14.5756 14.8766 15.2965 15 16.0891 15ZM16.0891 12.7288C15.3565 12.7288 14.8203 12.4802 14.4807 11.9832C14.141 11.4862 13.9711 10.7307 13.9711 9.71692C13.9711 8.70309 14.141 7.94931 14.4807 7.45556C14.8203 6.96182 15.3565 6.71494 16.0891 6.71494C16.8018 6.71494 17.3263 6.96182 17.6626 7.45556C17.999 7.94931 18.1671 8.70309 18.1671 9.71692C18.1671 10.7307 17.999 11.4862 17.6626 11.9832C17.3263 12.4802 16.8018 12.7288 16.0891 12.7288ZM25.3447 14.842V8.56155C25.811 7.70573 26.4504 7.27781 27.2629 7.27781C27.496 7.27781 27.6892 7.29263 27.8424 7.32225C27.9956 7.35188 28.1288 7.36669 28.242 7.36669C28.3752 7.36669 28.4818 7.33871 28.5617 7.28275C28.6416 7.22679 28.6949 7.12969 28.7215 6.99144L29.1212 4.73996C28.8348 4.51613 28.4551 4.40421 27.9822 4.40421C27.4228 4.40421 26.9066 4.57209 26.4337 4.90783C25.9608 5.24358 25.5346 5.70112 25.1549 6.28045L24.9851 5.32258C24.9585 5.19092 24.9268 5.079 24.8902 4.98683C24.8536 4.89467 24.8003 4.82061 24.7303 4.76465C24.6604 4.70869 24.5738 4.66754 24.4706 4.64121C24.3673 4.61488 24.2391 4.60171 24.0859 4.60171H22.2477V14.842H25.3447ZM31.3435 3.57472C31.6032 3.57472 31.848 3.52699 32.0778 3.43153C32.3076 3.33608 32.509 3.2077 32.6822 3.04641C32.8554 2.88512 32.9919 2.6975 33.0918 2.48354C33.1917 2.26959 33.2417 2.04082 33.2417 1.79723C33.2417 1.54707 33.1917 1.31336 33.0918 1.09612C32.9919 0.878868 32.8554 0.687953 32.6822 0.523371C32.509 0.358789 32.3076 0.230415 32.0778 0.138249C31.848 0.0460829 31.6032 0 31.3435 0C31.0904 0 30.854 0.0460829 30.6342 0.138249C30.4144 0.230415 30.2196 0.358789 30.0497 0.523371C29.8799 0.687953 29.7467 0.878868 29.6501 1.09612C29.5535 1.31336 29.5052 1.54707 29.5052 1.79723C29.5052 2.04082 29.5535 2.26959 29.6501 2.48354C29.7467 2.6975 29.8799 2.88512 30.0497 3.04641C30.2196 3.2077 30.4144 3.33608 30.6342 3.43153C30.854 3.52699 31.0904 3.57472 31.3435 3.57472ZM32.882 14.842V4.60171H29.785V14.842H32.882ZM37.1824 15C37.5354 15 37.8567 14.972 38.1465 14.9161C38.4362 14.8601 38.7093 14.7745 38.9657 14.6593C39.2221 14.5441 39.4702 14.4042 39.71 14.2396C39.9497 14.075 40.1995 13.8841 40.4592 13.6669L40.679 14.2298C40.7789 14.4799 40.9038 14.6445 41.0537 14.7235C41.2035 14.8025 41.425 14.842 41.7181 14.842H43.1367V8.44305C43.1367 7.85714 43.0435 7.31731 42.857 6.82357C42.6705 6.32982 42.4024 5.90355 42.0527 5.54477C41.7031 5.18598 41.2768 4.90619 40.774 4.7054C40.2711 4.50461 39.7066 4.40421 39.0806 4.40421C38.2081 4.40421 37.3905 4.53752 36.6279 4.80415C35.8653 5.07077 35.171 5.47729 34.5449 6.0237L35.1044 6.98157C35.1909 7.13298 35.3092 7.25971 35.459 7.36175C35.6089 7.46379 35.7904 7.51481 36.0035 7.51481C36.2433 7.51481 36.4497 7.47531 36.6229 7.39631C36.7961 7.31731 36.9742 7.22844 37.1574 7.12969C37.3406 7.03094 37.5487 6.94207 37.7818 6.86307C38.0149 6.78407 38.3146 6.74457 38.6809 6.74457C39.1405 6.74457 39.4952 6.87788 39.7449 7.1445C39.9947 7.41113 40.1196 7.84398 40.1196 8.44305V8.87755C38.934 8.90388 37.9516 9.02238 37.1724 9.23305C36.3931 9.44371 35.7737 9.7054 35.3142 10.0181C34.8546 10.3308 34.5316 10.6781 34.3451 11.0599C34.1586 11.4417 34.0653 11.8137 34.0653 12.1758C34.0653 12.6366 34.1386 13.0431 34.2851 13.3953C34.4317 13.7475 34.6398 14.0421 34.9095 14.2791C35.1793 14.5161 35.5073 14.6955 35.8936 14.8173C36.2799 14.9391 36.7095 15 37.1824 15ZM38.1614 12.9756C37.7885 12.9756 37.5054 12.9049 37.3123 12.7633C37.1191 12.6218 37.0225 12.3766 37.0225 12.0277C37.0225 11.8499 37.0675 11.6853 37.1574 11.5339C37.2473 11.3825 37.4088 11.2475 37.6419 11.129C37.875 11.0105 38.1914 10.9118 38.591 10.8328C38.9907 10.7538 39.5002 10.7011 40.1196 10.6748V12.0968C39.8132 12.4062 39.5102 12.63 39.2104 12.7683C38.9107 12.9065 38.5611 12.9756 38.1614 12.9756ZM47.6169 14.842V7.43581C47.8367 7.22515 48.0715 7.05727 48.3212 6.93219C48.571 6.80711 48.8357 6.74457 49.1155 6.74457C49.5684 6.74457 49.9114 6.86307 50.1445 7.10007C50.3776 7.33706 50.4941 7.74852 50.4941 8.33443V14.842H53.5912V8.33443C53.5912 7.82093 53.7294 7.42758 54.0058 7.15438C54.2822 6.88117 54.6302 6.74457 55.0498 6.74457C55.9689 6.74457 56.4285 7.27452 56.4285 8.33443V14.842H59.5255V8.33443C59.5255 7.72219 59.4456 7.17413 59.2858 6.69026C59.1259 6.20639 58.8911 5.79822 58.5814 5.46577C58.2717 5.13331 57.8871 4.87986 57.4275 4.7054C56.968 4.53094 56.4418 4.44371 55.849 4.44371C55.5293 4.44371 55.208 4.47663 54.885 4.54246C54.5619 4.60829 54.2556 4.71034 53.9658 4.84858C53.6761 4.98683 53.4064 5.16787 53.1566 5.39171C52.9068 5.61554 52.6954 5.88545 52.5222 6.20145C52.3091 5.6682 51.9977 5.24194 51.5881 4.92265C51.1785 4.60336 50.6606 4.44371 50.0346 4.44371C49.7349 4.44371 49.4601 4.47498 49.2104 4.53752C48.9606 4.60007 48.7275 4.68565 48.511 4.79427C48.2946 4.9029 48.0931 5.03127 47.9066 5.17939C47.7201 5.32752 47.5403 5.49045 47.3671 5.6682L47.1973 5.11521C47.144 4.94404 47.0524 4.81567 46.9225 4.73009C46.7927 4.6445 46.6312 4.60171 46.438 4.60171H44.5198V14.842H47.6169ZM65.4843 15C65.8373 15 66.2086 14.9753 66.5982 14.9259C66.9879 14.8766 67.3775 14.7877 67.7671 14.6593C68.1568 14.5309 68.5364 14.3532 68.906 14.1261C69.2757 13.8989 69.6204 13.6043 69.9401 13.2423L69.0409 12.1461C68.9144 11.9684 68.7279 11.8795 68.4815 11.8795C68.295 11.8795 68.1168 11.9223 67.947 12.0079C67.7771 12.0935 67.5906 12.1889 67.3875 12.2943C67.1843 12.3996 66.9529 12.4951 66.6932 12.5806C66.4334 12.6662 66.1237 12.709 65.764 12.709C65.0913 12.709 64.5419 12.5165 64.1156 12.1313C63.6894 11.7462 63.4263 11.1257 63.3264 10.2699H69.3007C69.4405 10.2699 69.5554 10.2535 69.6453 10.2205C69.7353 10.1876 69.8069 10.1284 69.8601 10.0428C69.9134 9.95721 69.9501 9.842 69.97 9.69717C69.99 9.55234 70 9.36471 70 9.1343C70 8.39697 69.8851 7.737 69.6553 7.15438C69.4256 6.57176 69.1059 6.07966 68.6962 5.67808C68.2866 5.2765 67.7971 4.97038 67.2276 4.75971C66.6582 4.54905 66.0304 4.44371 65.3444 4.44371C64.5519 4.44371 63.8409 4.57867 63.2115 4.84858C62.5821 5.1185 62.0459 5.48387 61.603 5.9447C61.1601 6.40553 60.8204 6.94207 60.584 7.55431C60.3475 8.16656 60.2293 8.81501 60.2293 9.49967C60.2293 10.4082 60.3675 11.2047 60.6439 11.8894C60.9203 12.5741 61.2966 13.1468 61.7728 13.6076C62.2491 14.0685 62.8052 14.4157 63.4413 14.6494C64.0773 14.8831 64.7583 15 65.4843 15ZM67.2226 8.49243H63.3563C63.4629 7.86702 63.6827 7.38808 64.0157 7.05563C64.3487 6.72317 64.8116 6.55695 65.4044 6.55695C65.7374 6.55695 66.0205 6.6129 66.2536 6.72482C66.4867 6.83673 66.6748 6.98321 66.818 7.16425C66.9612 7.34529 67.0645 7.55102 67.1277 7.78143C67.191 8.01185 67.2226 8.24885 67.2226 8.49243Z" fill="#283F44"/>
<path d="M74 0H72C71.4477 0 71 0.447715 71 1V3C71 3.55228 71.4477 4 72 4H74C74.5523 4 75 3.55228 75 3V1C75 0.447715 74.5523 0 74 0Z" fill="#FFD214"/>
</svg>
