<svg width="161" height="32" viewBox="0 0 161 32" fill="none" xmlns="http://www.w3.org/2000/svg">
<path d="M8.01369 32C8.76675 32 9.46653 31.9263 10.113 31.7788C10.7595 31.6313 11.3634 31.4207 11.9246 31.1468C12.4859 30.8729 13.008 30.5464 13.4911 30.1672C13.9742 29.788 14.436 29.3667 14.8765 28.9032L15.388 30.5675C15.5017 30.9326 15.697 31.2065 15.9741 31.3891C16.2512 31.5716 16.5957 31.6629 17.0078 31.6629H21.0999V0.126399H14.4929V11.1863C13.8535 10.6526 13.1395 10.2208 12.3509 9.89072C11.5623 9.56068 10.5997 9.39566 9.46298 9.39566C8.05632 9.39566 6.77043 9.68357 5.60532 10.2594C4.44021 10.8352 3.44205 11.6322 2.61084 12.6504C1.77964 13.6686 1.13669 14.8765 0.682017 16.2739C0.227339 17.6713 0 19.1846 0 20.8137C0 22.5833 0.202474 24.1598 0.607421 25.5431C1.01237 26.9265 1.57006 28.0957 2.28049 29.0507C2.99093 30.0057 3.83634 30.736 4.81674 31.2416C5.79714 31.7472 6.86279 32 8.01369 32ZM10.3155 26.9862C9.78978 26.9862 9.31379 26.8808 8.88753 26.6702C8.46127 26.4595 8.09539 26.1119 7.78991 25.6274C7.48442 25.1429 7.24643 24.5074 7.07592 23.7209C6.90542 22.9344 6.82017 21.9653 6.82017 20.8137C6.82017 19.6199 6.92673 18.6017 7.13986 17.7591C7.35299 16.9164 7.64782 16.2317 8.02435 15.7051C8.40088 15.1784 8.8449 14.7957 9.35641 14.5569C9.86793 14.3182 10.4292 14.1988 11.0401 14.1988C11.6795 14.1988 12.287 14.3077 12.8624 14.5253C13.4379 14.743 13.9813 15.1257 14.4929 15.6735V24.9427C14.2087 25.2798 13.921 25.5747 13.6297 25.8275C13.3384 26.0803 13.0294 26.291 12.7026 26.4595C12.3758 26.628 12.017 26.758 11.6263 26.8492C11.2355 26.9405 10.7986 26.9862 10.3155 26.9862ZM34.3235 32C36.0001 32 37.5275 31.7367 38.9058 31.21C40.284 30.6833 41.4669 29.932 42.4544 28.9559C43.4419 27.9798 44.2091 26.7931 44.7562 25.3957C45.3032 23.9982 45.5767 22.4288 45.5767 20.6873C45.5767 18.9598 45.3032 17.4044 44.7562 16.0211C44.2091 14.6377 43.4419 13.4615 42.4544 12.4924C41.4669 11.5234 40.284 10.779 38.9058 10.2594C37.5275 9.73974 36.0001 9.47992 34.3235 9.47992C32.6326 9.47992 31.0945 9.73974 29.7092 10.2594C28.3238 10.779 27.1303 11.5234 26.1286 12.4924C25.1269 13.4615 24.3525 14.6377 23.8055 16.0211C23.2584 17.4044 22.9849 18.9598 22.9849 20.6873C22.9849 22.4288 23.2584 23.9982 23.8055 25.3957C24.3525 26.7931 25.1269 27.9798 26.1286 28.9559C27.1303 29.932 28.3238 30.6833 29.7092 31.21C31.0945 31.7367 32.6326 32 34.3235 32ZM34.3235 27.1547C32.7605 27.1547 31.6167 26.6245 30.8921 25.5642C30.1674 24.5038 29.8051 22.8923 29.8051 20.7294C29.8051 18.5666 30.1674 16.9585 30.8921 15.9052C31.6167 14.8519 32.7605 14.3252 34.3235 14.3252C35.8438 14.3252 36.9627 14.8519 37.6803 15.9052C38.3978 16.9585 38.7566 18.5666 38.7566 20.7294C38.7566 22.8923 38.3978 24.5038 37.6803 25.5642C36.9627 26.6245 35.8438 27.1547 34.3235 27.1547ZM54.0688 31.6629V18.2646C55.0634 16.4389 56.4274 15.526 58.1609 15.526C58.6582 15.526 59.0703 15.5576 59.397 15.6208C59.7239 15.684 60.008 15.7156 60.2496 15.7156C60.5337 15.7156 60.7611 15.6559 60.9316 15.5365C61.1021 15.4172 61.2158 15.21 61.2726 14.9151L62.1251 10.1119C61.5141 9.63441 60.7043 9.39566 59.6954 9.39566C58.5019 9.39566 57.4007 9.75379 56.3919 10.47C55.3831 11.1863 54.4737 12.1624 53.6639 13.3983L53.3015 11.3548C53.2447 11.074 53.1772 10.8352 53.0991 10.6386C53.0209 10.442 52.9072 10.284 52.7581 10.1646C52.6089 10.0452 52.4241 9.95743 52.2039 9.90125C51.9837 9.84507 51.7102 9.81699 51.3834 9.81699H47.4618V31.6629H54.0688ZM66.8661 7.62607C67.4202 7.62607 67.9424 7.52425 68.4326 7.32061C68.9228 7.11696 69.3526 6.8431 69.722 6.49901C70.0915 6.15493 70.3828 5.75466 70.5959 5.29822C70.809 4.84178 70.9156 4.35374 70.9156 3.8341C70.9156 3.30042 70.809 2.80184 70.5959 2.33838C70.3828 1.87492 70.0915 1.46763 69.722 1.11652C69.3526 0.765416 68.9228 0.491551 68.4326 0.294931C67.9424 0.0983103 67.4202 0 66.8661 0C66.3262 0 65.8218 0.0983103 65.3529 0.294931C64.884 0.491551 64.4684 0.765416 64.1061 1.11652C63.7437 1.46763 63.4596 1.87492 63.2535 2.33838C63.0475 2.80184 62.9445 3.30042 62.9445 3.8341C62.9445 4.35374 63.0475 4.84178 63.2535 5.29822C63.4596 5.75466 63.7437 6.15493 64.1061 6.49901C64.4684 6.8431 64.884 7.11696 65.3529 7.32061C65.8218 7.52425 66.3262 7.62607 66.8661 7.62607ZM70.1483 31.6629V9.81699H63.5413V31.6629H70.1483ZM79.3224 32C80.0755 32 80.761 31.9403 81.3791 31.8209C81.9972 31.7016 82.5797 31.519 83.1268 31.2732C83.6738 31.0274 84.2031 30.729 84.7146 30.3779C85.2261 30.0268 85.7589 29.6195 86.3131 29.156L86.782 30.3568C86.9951 30.8905 87.2615 31.2416 87.5812 31.4101C87.9009 31.5787 88.3733 31.6629 88.9985 31.6629H92.025V18.0119C92.025 16.7619 91.826 15.6103 91.4282 14.5569C91.0304 13.5036 90.4585 12.5943 89.7125 11.8288C88.9666 11.0634 88.0572 10.4665 86.9844 10.0382C85.9117 9.60983 84.7075 9.39566 83.3719 9.39566C81.5105 9.39566 79.7664 9.68005 78.1395 10.2488C76.5126 10.8176 75.0314 11.6849 73.6958 12.8506L74.8893 14.894C75.074 15.217 75.3262 15.4874 75.6459 15.7051C75.9656 15.9228 76.3528 16.0316 76.8075 16.0316C77.319 16.0316 77.7594 15.9473 78.1289 15.7788C78.4983 15.6103 78.8784 15.4207 79.2691 15.21C79.6599 14.9993 80.1039 14.8097 80.6012 14.6412C81.0985 14.4727 81.7379 14.3884 82.5194 14.3884C83.4997 14.3884 84.2564 14.6728 84.7892 15.2416C85.322 15.8104 85.5884 16.7338 85.5884 18.0119V18.9388C83.0593 18.995 80.9635 19.2478 79.3011 19.6972C77.6387 20.1466 76.3173 20.7049 75.3369 21.372C74.3565 22.0391 73.6674 22.7799 73.2695 23.5945C72.8717 24.409 72.6727 25.2025 72.6727 25.975C72.6727 26.9581 72.829 27.8253 73.1416 28.5767C73.4542 29.3281 73.8982 29.9566 74.4737 30.4621C75.0491 30.9677 75.7489 31.3505 76.573 31.6103C77.3971 31.8701 78.3136 32 79.3224 32ZM81.4111 27.6814C80.6154 27.6814 80.0115 27.5304 79.5995 27.2284C79.1874 26.9265 78.9814 26.4033 78.9814 25.659C78.9814 25.2798 79.0773 24.9287 79.2691 24.6057C79.4609 24.2826 79.8055 23.9947 80.3028 23.7419C80.8001 23.4891 81.475 23.2785 82.3275 23.1099C83.1801 22.9414 84.267 22.8291 85.5884 22.7729V25.8065C84.9348 26.4665 84.2883 26.944 83.6489 27.239C83.0096 27.5339 82.2636 27.6814 81.4111 27.6814ZM101.583 31.6629V15.8631C102.052 15.4136 102.552 15.0555 103.085 14.7887C103.618 14.5218 104.183 14.3884 104.78 14.3884C105.746 14.3884 106.478 14.6412 106.975 15.1468C107.472 15.6524 107.721 16.5302 107.721 17.7801V31.6629H114.328V17.7801C114.328 16.6847 114.623 15.8455 115.212 15.2627C115.802 14.6798 116.544 14.3884 117.44 14.3884C119.4 14.3884 120.381 15.519 120.381 17.7801V31.6629H126.988V17.7801C126.988 16.474 126.817 15.3048 126.476 14.2725C126.135 13.2403 125.634 12.3695 124.974 11.6603C124.313 10.9511 123.492 10.4104 122.512 10.0382C121.532 9.66601 120.409 9.47992 119.145 9.47992C118.463 9.47992 117.777 9.55014 117.088 9.69059C116.399 9.83103 115.745 10.0487 115.127 10.3436C114.509 10.6386 113.934 11.0248 113.401 11.5023C112.868 11.9798 112.417 12.5556 112.047 13.2298C111.593 12.0922 110.928 11.1828 110.055 10.5016C109.181 9.8205 108.076 9.47992 106.74 9.47992C106.101 9.47992 105.515 9.54663 104.982 9.68005C104.449 9.81347 103.952 9.99605 103.49 10.2278C103.028 10.4595 102.599 10.7334 102.201 11.0494C101.803 11.3654 101.419 11.713 101.05 12.0922L100.688 10.9124C100.574 10.5473 100.378 10.2734 100.101 10.0908C99.8244 9.90827 99.4798 9.81699 99.0677 9.81699H94.9757V31.6629H101.583ZM139.7 32C140.453 32 141.245 31.9473 142.076 31.842C142.907 31.7367 143.739 31.5471 144.57 31.2732C145.401 30.9993 146.211 30.6201 147 30.1356C147.788 29.6511 148.523 29.0226 149.205 28.2502L147.287 25.9118C147.017 25.5326 146.619 25.343 146.094 25.343C145.696 25.343 145.316 25.4343 144.954 25.6169C144.591 25.7994 144.193 26.0031 143.76 26.2278C143.327 26.4525 142.833 26.6561 142.279 26.8387C141.725 27.0213 141.064 27.1126 140.297 27.1126C138.862 27.1126 137.689 26.7018 136.78 25.8802C135.871 25.0586 135.309 23.7349 135.096 21.9092H147.841C148.14 21.9092 148.385 21.874 148.577 21.8038C148.769 21.7336 148.921 21.6072 149.035 21.4246C149.149 21.242 149.227 20.9963 149.269 20.6873C149.312 20.3783 149.333 19.9781 149.333 19.4865C149.333 17.9135 149.088 16.5056 148.598 15.2627C148.108 14.0198 147.426 12.9699 146.552 12.1132C145.678 11.2565 144.634 10.6035 143.419 10.154C142.204 9.70463 140.865 9.47992 139.401 9.47992C137.711 9.47992 136.194 9.76783 134.851 10.3436C133.508 10.9195 132.365 11.6989 131.42 12.682C130.475 13.6651 129.75 14.8097 129.246 16.1159C128.741 17.422 128.489 18.8054 128.489 20.266C128.489 22.2041 128.784 23.9034 129.374 25.3641C129.963 26.8247 130.766 28.0465 131.782 29.0296C132.798 30.0127 133.984 30.7536 135.341 31.2521C136.698 31.7507 138.151 32 139.7 32ZM143.408 18.1172H135.16C135.388 16.783 135.856 15.7612 136.567 15.052C137.277 14.3428 138.265 13.9882 139.529 13.9882C140.24 13.9882 140.844 14.1075 141.341 14.3463C141.838 14.585 142.24 14.8975 142.545 15.2837C142.851 15.67 143.071 16.1088 143.206 16.6004C143.341 17.0919 143.408 17.5975 143.408 18.1172Z" fill="white"/>
<path d="M160.5 0H151.5V9H160.5V0Z" fill="#FFD214"/>
</svg>
